<svg width="193" height="60" viewBox="0 0 193 60" fill="none" xmlns="http://www.w3.org/2000/svg">
<mask id="m0" style="mask-type:luminance" maskUnits="userSpaceOnUse" x="97" y="9" width="41" height="41">
<path d="M117.777 9.94385C106.79 9.94385 97.7793 18.8381 97.7793 29.8252C97.7793 40.8122 106.732 49.7065 117.777 49.7065C128.764 49.7065 137.774 40.7541 137.774 29.8252C137.716 18.8381 128.764 9.94385 117.777 9.94385Z" fill="white"/>
</mask>
<g mask="url(#m0)">
<path d="M148.413 9.94385H86.0371V16.571H148.413V9.94385Z" fill="#D12329"/>
<path d="M148.413 16.5708H86.0371V23.1979H148.413V16.5708Z" fill="#F6891F"/>
<path d="M148.355 23.1982H85.9785V29.8254H148.355V23.1982Z" fill="#FCE013"/>
<path d="M148.355 29.8252H85.9785V36.4523H148.355V29.8252Z" fill="#007A40"/>
<path d="M148.355 36.4521H85.9785V43.0793H148.355V36.4521Z" fill="#23418D"/>
<path d="M148.355 43.0796H85.9785V49.7067H148.355V43.0796Z" fill="#732A82"/>
</g>
<path d="M125.101 20.2333C123.531 18.9544 121.38 18.3149 118.764 18.3149H112.195C111.905 18.3149 111.672 18.4312 111.498 18.6056C111.323 18.78 111.207 19.0707 111.207 19.3032V39.9402C111.207 40.2309 111.323 40.4634 111.498 40.6378C111.672 40.8122 111.963 40.9285 112.195 40.9285H113.474C113.765 40.9285 113.997 40.8122 114.172 40.6378C114.346 40.4634 114.462 40.1728 114.462 39.9402V33.8363H118.764C121.38 33.8363 123.531 33.1387 125.101 31.918C126.787 30.5228 127.659 28.5463 127.659 26.0466C127.659 23.5469 126.787 21.5704 125.101 20.2333ZM124.287 26.0466C124.287 27.4999 123.764 28.7207 122.775 29.5345C121.787 30.3484 120.392 30.8134 118.764 30.8134H114.462V21.3378H118.764C120.45 21.3378 121.787 21.7448 122.775 22.5586C123.764 23.4306 124.287 24.5933 124.287 26.0466Z" fill="white"/>
<g fill="#3F4B51">
<path d="M29.0084 22.9658L25.1717 36.8595L21.5093 22.9658H19.4747L15.6379 36.8595L11.8593 22.9658H9.88281L14.4171 39.7661H16.6262L20.4629 26.2212L24.1834 39.8243L26.3343 39.7661L30.9849 22.9658H29.0084Z"/>
<path d="M40.3437 22.9656C37.9021 22.9656 36.1581 23.8957 35.0536 24.7096V16.0479H33.1934V39.7078H35.0536V26.7442C35.8093 26.0466 37.6114 24.7677 40.1693 24.7677C42.2039 24.7677 43.2503 25.6979 43.2503 27.5V39.7078H45.1105V27.3256C45.1687 24.5933 43.3666 22.9656 40.3437 22.9656Z"/>
<path d="M55.1095 22.9658C50.6333 22.9658 48.4824 24.4191 48.4824 27.442V35.6387C48.4824 38.6616 50.6333 40.1149 55.1095 40.1149C59.5857 40.1149 61.7366 38.6616 61.7366 35.6387V34.4179H59.7601V35.5224C59.7601 36.8014 59.2369 38.3128 55.1095 38.3128C50.9821 38.3128 50.4589 36.8014 50.4589 35.5224V31.9182H61.7366V27.442C61.7366 24.361 59.6439 22.9658 55.1095 22.9658ZM55.1095 24.7098C59.2951 24.7098 59.7601 26.2794 59.7601 27.442V30.1743H50.4589V27.442C50.4589 26.2794 50.9821 24.7098 55.1095 24.7098Z"/>
<path d="M72.5487 22.9658C70.3978 22.9658 68.4213 24.2447 67.2587 25.1167L67.2005 22.9658H65.3984V39.708H67.2587V27.1514C67.84 26.6282 70.1072 24.8842 72.4906 24.8842H73.1882V22.9658H72.5487Z"/>
<path d="M80.5138 22.9658C76.0376 22.9658 73.8867 24.4191 73.8867 27.442V35.6387C73.8867 38.6616 76.0376 40.1149 80.5138 40.1149C84.99 40.1149 87.1409 38.6616 87.1409 35.6387V34.4179H85.1644V35.5224C85.1644 36.8014 84.6412 38.3128 80.5138 38.3128C76.3864 38.3128 75.8632 36.8014 75.8632 35.5224V31.9182H87.1409V27.442C87.1409 24.361 85.0482 22.9658 80.5138 22.9658ZM80.5138 24.7098C84.6994 24.7098 85.1644 26.2794 85.1644 27.442V30.1743H75.8632V27.442C75.8632 26.2794 76.3283 24.7098 80.5138 24.7098Z"/>
<path d="M149.109 22.6753H145.854C142.831 22.6753 141.32 24.1867 141.32 27.2096V27.791H143.296V27.1515C143.296 25.2913 144.052 24.5355 145.97 24.5355H149.051C150.911 24.5355 151.725 25.2913 151.725 27.1515V29.3024L145.273 29.9419C142.482 30.2907 140.738 31.2208 140.738 34.825C140.738 38.4292 142.366 39.8825 145.912 39.8825C148.47 39.8825 150.098 39.3012 151.725 37.8479V39.7663H153.702V27.2678C153.644 24.2449 152.132 22.6753 149.109 22.6753ZM151.609 30.9301V35.9876C149.923 37.3828 148.528 38.0804 145.912 38.0804C143.471 38.0804 142.657 37.2084 142.657 34.825C142.657 32.4416 143.529 31.9184 145.331 31.6858L151.609 30.9301Z"/>
<path d="M165.387 22.9658C163.236 22.9658 161.259 24.2447 160.097 25.1167L160.038 22.9658H158.236V39.708H160.097V27.1514C160.678 26.6282 162.945 24.8842 165.328 24.8842H166.026V22.9658H165.387Z"/>
<path fill-rule="evenodd" clip-rule="evenodd" d="M176.142 29.0698L182.188 22.5008H179.455L171.259 31.5113V16.6294H169.166V39.6499H171.259V34.2436L174.63 30.6393L179.979 39.5336L180.095 39.6499H182.478L176.142 29.0698Z"/>
</g>
<mask id="m1" style="mask-type:luminance" maskUnits="userSpaceOnUse" x="90" y="19" width="5" height="22">
<path d="M92.9531 23.14C94.0576 23.14 94.9296 22.268 94.9296 21.1635C94.9296 20.059 94.0576 19.187 92.9531 19.187C91.8485 19.187 90.9766 20.059 90.9766 21.1635C90.9766 22.2099 91.8485 23.14 92.9531 23.14ZM93.6507 26.5698H92.2555C91.7323 26.5698 91.3254 26.9768 91.3254 27.5V39.1846C91.3254 39.7078 91.7323 40.1147 92.2555 40.1147H93.6507C94.1739 40.1147 94.5808 39.7078 94.5808 39.1846V27.5581C94.5808 27.0349 94.1739 26.5698 93.6507 26.5698Z" fill="white"/>
</mask>
<g mask="url(#m1)">
<path d="M116.38 16.5708H54.0039V23.1979H116.38V16.5708Z" fill="#F6891F"/>
<path d="M116.322 23.1982H53.9453V29.8254H116.322V23.1982Z" fill="#FCE013"/>
<path d="M116.322 29.8252H53.9453V36.4523H116.322V29.8252Z" fill="#007A40"/>
<path d="M116.322 36.4521H53.9453V43.0793H116.322V36.4521Z" fill="#23418D"/>
</g>
</svg>
